<svg viewBox="0 0 120 31" fill="none" xmlns="http://www.w3.org/2000/svg">
  <path fill-rule="evenodd" clip-rule="evenodd" d="M19.426 10.809h10.808C30.234 4.839 25.395 0 19.426 0 13.456 0 8.618 4.84 8.618 10.808H0c0 10.73 8.697 19.426 19.426 19.426v-8.617c-5.97 0-10.808-4.84-10.808-10.809h10.808Z" fill="#fff"/>
  <path d="M39.858 24.528c.528 0 1.056-.102 1.583-.307a4.162 4.162 0 0 0 1.364-.814l1.803 1.847c-.499.528-1.188.953-2.067 1.275a7.325 7.325 0 0 1-2.573.484 6.31 6.31 0 0 1-3.078-.77 5.796 5.796 0 0 1-2.2-2.133c-.527-.908-.79-1.934-.79-3.078 0-1.129.256-2.14.769-3.034a5.777 5.777 0 0 1 2.133-2.111c.894-.513 1.89-.77 2.99-.77 1.173 0 2.192.271 3.056.814.865.542 1.525 1.326 1.98 2.353.454 1.026.681 2.235.681 3.628h-8.553c.146.791.476 1.429.99 1.913.512.469 1.15.703 1.912.703Zm-.022-6.926c-.703 0-1.312.22-1.825.66-.513.425-.858 1.004-1.033 1.737h5.453c-.132-.733-.425-1.312-.88-1.737-.454-.44-1.026-.66-1.715-.66ZM54.761 26.75 52.3 23.318l-2.485 3.43h-3.386l4.178-5.783-4.002-5.585h3.474l2.265 3.166 2.286-3.166h3.387l-3.98 5.52 4.178 5.848H54.76ZM65.437 27.013a6.21 6.21 0 0 1-5.365-2.968 5.687 5.687 0 0 1-.835-2.99c0-1.071.278-2.06.835-2.97a6.037 6.037 0 0 1 2.265-2.154 6.161 6.161 0 0 1 3.1-.814c1.115 0 2.148.271 3.1.814a6.037 6.037 0 0 1 2.266 2.155c.557.909.835 1.898.835 2.968s-.278 2.067-.835 2.99a6.21 6.21 0 0 1-5.366 2.969Zm0-2.705c.557 0 1.07-.146 1.54-.44a3.175 3.175 0 0 0 1.143-1.187 3.28 3.28 0 0 0 .418-1.627 3.16 3.16 0 0 0-.418-1.605 3.174 3.174 0 0 0-1.143-1.187 2.848 2.848 0 0 0-1.54-.44 2.96 2.96 0 0 0-1.56.44 3.175 3.175 0 0 0-1.144 1.187 3.16 3.16 0 0 0-.418 1.605c0 .587.14 1.129.418 1.627.278.499.66.895 1.143 1.188a2.96 2.96 0 0 0 1.561.44ZM79.265 27.013a6.12 6.12 0 0 1-3.078-.814 6.445 6.445 0 0 1-2.265-2.176 5.65 5.65 0 0 1-.836-2.969c0-1.055.279-2.037.836-2.946a6.39 6.39 0 0 1 2.287-2.177 6.241 6.241 0 0 1 3.1-.814c.894 0 1.715.169 2.463.506.762.337 1.43.813 2 1.43l-2.132 1.824a3.208 3.208 0 0 0-1.078-.77 2.997 2.997 0 0 0-1.275-.285c-.542 0-1.055.146-1.539.44-.47.293-.843.689-1.122 1.187a3.118 3.118 0 0 0-.417 1.583c0 .587.139 1.129.417 1.627.28.499.653.902 1.122 1.21.484.293 1.004.44 1.561.44.44 0 .872-.096 1.297-.286.44-.206.807-.477 1.1-.814l2.133 1.803a6.34 6.34 0 0 1-2.045 1.473c-.762.352-1.605.528-2.529.528ZM91.227 27.013a6.21 6.21 0 0 1-5.365-2.968 5.687 5.687 0 0 1-.836-2.99c0-1.071.279-2.06.836-2.97a6.037 6.037 0 0 1 2.264-2.154 6.162 6.162 0 0 1 3.1-.814c1.115 0 2.148.271 3.101.814a6.036 6.036 0 0 1 2.265 2.155c.557.909.836 1.898.836 2.968s-.279 2.067-.836 2.99a6.209 6.209 0 0 1-5.365 2.969Zm0-2.705c.557 0 1.07-.146 1.539-.44a3.175 3.175 0 0 0 1.143-1.187 3.28 3.28 0 0 0 .418-1.627c0-.586-.139-1.121-.418-1.605a3.174 3.174 0 0 0-1.143-1.187 2.848 2.848 0 0 0-1.54-.44 2.96 2.96 0 0 0-1.56.44 3.175 3.175 0 0 0-1.144 1.187 3.16 3.16 0 0 0-.418 1.605c0 .587.14 1.129.418 1.627.279.499.66.895 1.144 1.188a2.96 2.96 0 0 0 1.56.44ZM102.9 17.514a4.386 4.386 0 0 1 1.583-1.76 4.307 4.307 0 0 1 2.309-.637v2.705c-1.188 0-2.133.315-2.837.945-.703.63-1.055 1.48-1.055 2.551v5.431h-3.21V15.381h3.21v2.133ZM114.349 24.528a4.34 4.34 0 0 0 1.583-.307 4.158 4.158 0 0 0 1.363-.814l1.803 1.847c-.498.528-1.187.953-2.066 1.275a7.328 7.328 0 0 1-2.573.484 6.316 6.316 0 0 1-3.079-.77 5.794 5.794 0 0 1-2.198-2.133c-.528-.908-.792-1.934-.792-3.078 0-1.129.257-2.14.77-3.034a5.77 5.77 0 0 1 2.132-2.111c.895-.513 1.892-.77 2.991-.77 1.173 0 2.191.271 3.056.814.865.542 1.525 1.326 1.979 2.353.455 1.026.682 2.235.682 3.628h-8.554c.147.791.477 1.429.99 1.913.513.469 1.151.703 1.913.703Zm-.022-6.926c-.704 0-1.312.22-1.825.66-.513.425-.858 1.004-1.034 1.737h5.454c-.132-.733-.426-1.312-.88-1.737-.454-.44-1.026-.66-1.715-.66Z" fill="#fff"/>
</svg>
